<?xml version="1.0" encoding="UTF-8"?> <svg xmlns="http://www.w3.org/2000/svg" xmlns:xlink="http://www.w3.org/1999/xlink" viewBox="0 0 154.99 124.22"> <defs> <style>.cls-1,.cls-10,.cls-13,.cls-9{fill:gray;}.cls-1{clip-rule:evenodd;}.cls-2{fill:url(#linear-gradient);}.cls-3{fill:url(#linear-gradient-2);}.cls-4{fill:#fff;}.cls-5{fill:url(#linear-gradient-3);}.cls-6{fill:url(#linear-gradient-4);}.cls-7{fill:url(#linear-gradient-5);}.cls-8{fill:url(#linear-gradient-6);}.cls-10{fill-rule:evenodd;}.cls-11{clip-path:url(#clip-path);}.cls-12{fill:#666;}.cls-13{opacity:0.44;isolation:isolate;}</style> <linearGradient id="linear-gradient" x1="49.61" y1="79.46" x2="66.57" y2="109.71" gradientUnits="userSpaceOnUse"> <stop offset="0" stop-color="#cad0e6"></stop> <stop offset="1" stop-color="#fff"></stop> </linearGradient> <linearGradient id="linear-gradient-2" x1="24.52" y1="69.22" x2="14.43" y2="112.01" gradientUnits="userSpaceOnUse"> <stop offset="0" stop-color="#e1e6f0"></stop> <stop offset="1" stop-color="#fff"></stop> </linearGradient> <linearGradient id="linear-gradient-3" x1="128.61" y1="79.46" x2="145.57" y2="109.71" xlink:href="#linear-gradient"></linearGradient> <linearGradient id="linear-gradient-4" x1="103.52" y1="69.22" x2="93.43" y2="112.01" xlink:href="#linear-gradient-2"></linearGradient> <linearGradient id="linear-gradient-5" x1="89.95" y1="40.79" x2="106.91" y2="71.05" xlink:href="#linear-gradient"></linearGradient> <linearGradient id="linear-gradient-6" x1="64.85" y1="30.55" x2="54.76" y2="73.35" xlink:href="#linear-gradient-2"></linearGradient> <clipPath id="clip-path"> <path id="_Clipping_Path_" data-name="&lt;Clipping Path&gt;" class="cls-1" d="M135.78,90.21a.28.28,0,0,0-.27.15l-2.24,3a.71.71,0,0,0-.13.4l0,3.61c0,.13.05.23.14.25l2.25.62c.09,0,.19,0,.28-.14l2.23-3a.77.77,0,0,0,.14-.4l0-3.61a.28.28,0,0,0-.14-.26Z"></path> </clipPath> </defs> <title>Rollout_site_19c</title> <g id="specctr"> <g id="Text_Properties" data-name="Text Properties"> <path class="cls-2" d="M43.07,122.86l31.19-18a3.41,3.41,0,0,0,1.73-3V61L38,83v41.25A10.1,10.1,0,0,0,43.07,122.86Z"></path> <path class="cls-3" d="M1.73,104.85l31.2,18A10.07,10.07,0,0,0,38,124.22V83L0,61v40.81A3.43,3.43,0,0,0,1.73,104.85Z"></path> <path class="cls-4" d="M1.73,64l31.2,18a10.1,10.1,0,0,0,10.14,0L74.26,64a3.47,3.47,0,0,0,0-6L43.07,40a10.1,10.1,0,0,0-10.14,0L1.73,58A3.47,3.47,0,0,0,1.73,64Z"></path> <path class="cls-5" d="M122.07,122.86l31.19-18a3.41,3.41,0,0,0,1.73-3V61L117,83v41.25A10.1,10.1,0,0,0,122.07,122.86Z"></path> <path class="cls-6" d="M80.73,104.85l31.2,18a10.07,10.07,0,0,0,5.07,1.36V83L79,61v40.81A3.43,3.43,0,0,0,80.73,104.85Z"></path> <path class="cls-4" d="M80.73,64l31.2,18a10.1,10.1,0,0,0,10.14,0l31.19-18a3.47,3.47,0,0,0,0-6L122.07,40a10.1,10.1,0,0,0-10.14,0L80.73,58A3.47,3.47,0,0,0,80.73,64Z"></path> <path class="cls-7" d="M83.4,84.2l31.19-18a3.44,3.44,0,0,0,1.74-3V22.37l-38,21.94V85.55A10.19,10.19,0,0,0,83.4,84.2Z"></path> <path class="cls-8" d="M42.07,66.19l31.19,18a10.19,10.19,0,0,0,5.07,1.35V44.31l-38-21.94V63.19A3.44,3.44,0,0,0,42.07,66.19Z"></path> <path class="cls-4" d="M42.07,25.37l31.19,18a10.15,10.15,0,0,0,10.14,0l31.19-18a3.46,3.46,0,0,0,0-6L83.4,1.36a10.15,10.15,0,0,0-10.14,0l-31.19,18A3.46,3.46,0,0,0,42.07,25.37Z"></path> <path class="cls-9" d="M138.68,104.18a.29.29,0,0,1-.22,0l-.71-.21c-.11,0-.06-.08,0-.12a2.51,2.51,0,0,0,.32-.37,0,0,0,0,1,0,0l.55.16a.06.06,0,0,0,.06,0l2.12-2.82a.21.21,0,0,0,0-.1l0-3.42s0-.06,0-.06l-2.13-.59s-.05,0-.07,0l-2.12,2.83a.19.19,0,0,0,0,.1l0,3.42a.06.06,0,0,0,0,.06l.59.16c.31,0,.51-.31.5-.57V99.28a.13.13,0,0,1,.06-.12l.27-.14s.06,0,.06,0l0,3.37a1.34,1.34,0,0,1-.63,1.26.59.59,0,0,1-.49.07l-.56-.15c-.14,0-.22-.2-.23-.42V99.78a1.09,1.09,0,0,1,.22-.66l2.12-2.83a.45.45,0,0,1,.44-.23l2.14.59c.14,0,.23.2.23.42l0,3.42a1.11,1.11,0,0,1-.22.65L138.91,104A.9.9,0,0,1,138.68,104.18Z"></path> <path class="cls-9" d="M139.33,101.47c-.93.5-1.13,0-1.13-.5a.1.1,0,0,1,.06-.11l.27-.15s.06,0,.06,0c0,.37.17.5.74.2s.63-.47.63-.8-.05-.31-.75,0-1,.24-1-.41a1.68,1.68,0,0,1,1-1.46c.68-.36,1-.21,1.06.48a.09.09,0,0,1,0,.07.12.12,0,0,1-.05,0L140,99s-.06,0-.06,0c-.07-.37-.23-.42-.67-.19s-.55.52-.55.7.07.25.73,0,1-.22,1,.42A1.79,1.79,0,0,1,139.33,101.47Z"></path> <path class="cls-9" d="M142.38,96.28a.94.94,0,0,1-.41.78c-.22.12-.41,0-.41-.35a1,1,0,0,1,.41-.79C142.19,95.8,142.38,96,142.38,96.28Zm-.75.39c0,.27.15.4.34.3a.78.78,0,0,0,.34-.66c0-.27-.15-.4-.34-.3A.76.76,0,0,0,141.63,96.67Zm.18-.42.16-.08c.06,0,.16-.09.16.08a.26.26,0,0,1-.08.21c.06,0,.07,0,.08.1a.7.7,0,0,0,0,.16l-.1,0s0-.18,0-.19,0,0,0,0l-.08,0v.26l-.09,0Zm.09.24.07,0a.14.14,0,0,0,.07-.13c0-.08,0-.06-.06,0l-.08,0Z"></path> <path class="cls-10" d="M132,94.27c0-.13,0-.23-.13-.25l-2.27-.62a.15.15,0,0,0-.13,0h0a.46.46,0,0,0-.12.12l-2.25,3a.69.69,0,0,0-.14.4l0,4.87a.13.13,0,0,0,.07.13.15.15,0,0,0,.14-.08l1.33-1.77a.67.67,0,0,0,.14-.4V97.41a.71.71,0,0,1,.13-.4l.57-.76a.31.31,0,0,1,.14-.12.16.16,0,0,1,.13,0l.58.16c.08,0,.13.12.13.26l0,2.27c0,.14.05.23.14.26l1.34.36a.13.13,0,0,0,.14-.07.35.35,0,0,0,.07-.2Z"></path> <path class="cls-10" d="M142.84,81.87a.14.14,0,0,0-.13.07.4.4,0,0,0-.07.2l0,4.82a.24.24,0,0,1,0,.14s-.06.06-.09.05L142,87c-.09,0-.19,0-.27.14l-2.25,3a.65.65,0,0,0-.14.4l0,3.63c0,.13.05.23.14.25l2.27.63a.28.28,0,0,0,.27-.14l2.25-3a.72.72,0,0,0,.14-.4l0-9a.23.23,0,0,0-.15-.25Zm-.15,9.33a.18.18,0,0,1,0,.1l-.77,1a.09.09,0,0,1-.07,0l-.78-.22s0,0,0-.06V90.85a.15.15,0,0,1,0-.1l.78-1s0,0,.06,0l.78.21a.07.07,0,0,1,0,.07Z"></path> <path class="cls-10" d="M150.41,85.86a.66.66,0,0,0,.13-.4v-.88a.25.25,0,0,0-.14-.26l-2.25-.63c-.09,0-.19,0-.28.15l-2.24,3a.65.65,0,0,0-.14.4l0,3.62c0,.14.05.24.14.26l2.25.6a.28.28,0,0,0,.27-.14l1.35-1.77a.29.29,0,0,0,.07-.2c0-.07,0-.11-.07-.13l-2.28-.61a.14.14,0,0,1-.07-.13V87.6a.36.36,0,0,1,.06-.2l.71-.94a.14.14,0,0,1,.13-.07l.71.2c.05,0,.07.06.07.12v.9c0,.07,0,.11.07.13s.09,0,.13-.08Z"></path> <path class="cls-10" d="M148,87a.09.09,0,0,1,.06,0l.43.12a0,0,0,0,1,0,0v.7a.19.19,0,0,1,0,.07l-.43.58a.09.09,0,0,1-.06,0l-.43-.12a.05.05,0,0,1,0,0v-.7a.31.31,0,0,1,0-.08Z"></path> <path id="_Clipping_Path_2" data-name="&lt;Clipping Path&gt;" class="cls-10" d="M135.78,90.21a.28.28,0,0,0-.27.15l-2.24,3a.71.71,0,0,0-.13.4l0,3.61c0,.13.05.23.14.25l2.25.62c.09,0,.19,0,.28-.14l2.23-3a.77.77,0,0,0,.14-.4l0-3.61a.28.28,0,0,0-.14-.26Z"></path> <g class="cls-11"> <path class="cls-9" d="M135.51,90.36l-2.25,3a.78.78,0,0,0-.14.41l0,3.61a.32.32,0,0,0,.07.2l2.5-7.35A.39.39,0,0,0,135.51,90.36Z"></path> <path class="cls-9" d="M135.76,98.15l.07-.07,2.24-3a.72.72,0,0,0,.14-.4l0-3.61a.26.26,0,0,0-.09-.21Z"></path> <path class="cls-9" d="M138,90.83l-2.26-.62h-.07l-2.5,7.35.08,0,2.27.61a.21.21,0,0,0,.2-.07l2.34-7.28S138.06,90.84,138,90.83Z"></path> <path class="cls-9" d="M138.21,94.69l0-3.61a.24.24,0,0,0-.15-.25l-2.26-.62h-.08l2.5,4.56S138.21,94.72,138.21,94.69Z"></path> <path class="cls-9" d="M133.26,93.34a.78.78,0,0,0-.14.41l0,3.61a.24.24,0,0,0,.15.25l2.27.61a.19.19,0,0,0,.17,0l-2.45-4.85Z"></path> <polygon class="cls-9" points="135.43 89.73 135.4 89.77 135.44 89.75 135.43 89.73"></polygon> <path class="cls-9" d="M138.07,95.09a.79.79,0,0,0,.13-.31l-2.5-4.56a.28.28,0,0,0-.19.14l-2.23,3,2.45,4.85a.94.94,0,0,0,.1-.1Z"></path> <polygon class="cls-9" points="138.28 94.92 138.26 94.9 138.26 94.94 138.28 94.92"></polygon> <path class="cls-9" d="M138.07,95.09l-2.24,3a.94.94,0,0,1-.1.1l0,.09,2.49-3.33v0l-.06-.12A.79.79,0,0,1,138.07,95.09Z"></path> <path class="cls-9" d="M138.07,95.09l-2.24,3a.94.94,0,0,1-.1.1l0,.09,2.49-3.33v0l-.06-.12A.79.79,0,0,1,138.07,95.09Z"></path> </g> <path class="cls-12" d="M90.36,82.9,90,99.59l15.33,7.87.34-16.69Zm8.08,17.31c0,1.62-.92,1.91-2.2,1.26a4.39,4.39,0,0,1-2.13-2.55l1.19-.17a2.1,2.1,0,0,0,.91,1.29c.47.24.77.19.79-.59l.11-5.34,1.44.74Zm3.36,4.11a5.38,5.38,0,0,1-2.6-2.95l1.19-.14a3.06,3.06,0,0,0,1.4,1.68c.6.31,1,.18,1-.27s-.37-.93-1-1.58l-.36-.35a4.41,4.41,0,0,1-1.68-3.25c0-1.18.86-1.65,2.15-1a4,4,0,0,1,2,2.31l-1.13.2a1.88,1.88,0,0,0-.92-1.14c-.42-.22-.69-.07-.7.31s.25.8.87,1.41l.35.35c1.21,1.2,1.89,2.14,1.87,3.45S103.16,105,101.8,104.32Z"></path> <path class="cls-12" d="M22.12,85.9l-9.57-4.42a2,2,0,0,0-3.15,2l0,10.45a5.81,5.81,0,0,0,3.11,4.87L22,103.21a2,2,0,0,0,3.15-2l0-10.46A5.81,5.81,0,0,0,22.12,85.9Zm-9.3,7.22-.56-.26,0-4.32.56.26ZM12.56,88a.66.66,0,0,1-.37-.59.24.24,0,0,1,.37-.24.69.69,0,0,1,.38.59C12.94,88,12.78,88.12,12.56,88ZM18,93.16c0,1.58-.82,2.1-2,1.53a3.59,3.59,0,0,1-2-3.41v-.86c0-1.59.81-2.16,2-1.59a3.67,3.67,0,0,1,2,3.46Zm2.5,3.64a2.92,2.92,0,0,1-1.82-2.46l.57.26a2.14,2.14,0,0,0,1.32,1.67c.75.34,1.24.16,1.24-.48s-.28-.92-.89-1.37l-.89-.68a2.6,2.6,0,0,1-1.18-2c0-1,.85-1.21,1.75-.79a2.85,2.85,0,0,1,1.74,2.37l-.56-.26a2,2,0,0,0-1.19-1.56c-.67-.31-1.16-.17-1.17.46a1.6,1.6,0,0,0,.77,1.25l.87.66A2.74,2.74,0,0,1,22.41,96C22.41,97.1,21.56,97.28,20.52,96.8Z"></path> <path class="cls-12" d="M16,89.38c-.84-.38-1.47,0-1.48,1.29v.88A2.68,2.68,0,0,0,16,94.13c.84.4,1.47.06,1.48-1.23V92A2.79,2.79,0,0,0,16,89.38Z"></path> <path class="cls-12" d="M61.81,60.23c0,.24-.2.36-.44.27L54.89,58a.7.7,0,0,1-.44-.61V51.59c0-.25.19-.37.44-.27l6.48,2.52a.72.72,0,0,1,.44.61Z"></path> <polygon class="cls-12" points="61.82 57.05 54.44 54.18 54.44 51.15 61.82 54.01 61.82 57.05"></polygon> <path class="cls-12" d="M63.78,58.83c0,.44-.35.65-.79.48h0a1.28,1.28,0,0,1-.78-1.09V54.7c0-.44.35-.65.78-.48h0a1.27,1.27,0,0,1,.79,1.09Z"></path> <path class="cls-12" d="M54.05,55.05a.52.52,0,0,1-.79.48h0a1.29,1.29,0,0,1-.78-1.09V50.92c0-.44.35-.65.78-.48h0a1.27,1.27,0,0,1,.79,1.09Z"></path> <path class="cls-12" d="M54.47,50.72s.08-3.09,3.66-1.69a5.41,5.41,0,0,1,3.65,4.54Z"></path> <ellipse class="cls-12" cx="56.52" cy="49.93" rx="0.36" ry="0.53" transform="translate(-18.85 47.36) rotate(-39.5)"></ellipse> <ellipse class="cls-12" cx="59.73" cy="51.17" rx="0.36" ry="0.53" transform="translate(-18.91 49.68) rotate(-39.5)"></ellipse> <path class="cls-12" d="M56.4,48.78s.05,0,.09,0h0s0,0,0-.06l-.68-1.23a.1.1,0,0,0-.09,0h0s-.06,0,0,.06Z"></path> <path class="cls-12" d="M59.85,50.12s-.05,0-.09,0h0s0-.08,0-.09l.69-.7s.05,0,.08,0h0s.06.08,0,.09Z"></path> <path class="cls-12" d="M60.43,62.09c0,.44-.36.65-.79.48h0a1.28,1.28,0,0,1-.78-1.09V58c0-.44.35-.65.78-.48h0a1.29,1.29,0,0,1,.79,1.09Z"></path> <path class="cls-12" d="M57.4,60.92c0,.43-.35.64-.79.48h0a1.29,1.29,0,0,1-.78-1.09V56.78a.52.52,0,0,1,.78-.48h0a1.28,1.28,0,0,1,.79,1.09Z"></path> <path id="path1948" class="cls-9" d="M98.08,46.6a12.92,12.92,0,0,0-1.59,1c-1.41,1-1.65,1.7-1.64,2.76v1.4L98.2,50v.47l-3.33,1.71-1.25.65a4.14,4.14,0,0,0-2.06,2.93,7.55,7.55,0,0,0,0,3.73c.25,1,.83,1.44,1.8,1l1.14-.59,0-1.68a4.21,4.21,0,0,1,2.06-3.35l3.33-1.71a3.33,3.33,0,0,0,1.64-2.73l0-3.49c0-1-.78-1.35-1.69-1A11.86,11.86,0,0,0,98.08,46.6Zm-1.79,2a.4.4,0,0,1,.64.38,1.28,1.28,0,0,1-.62,1c-.35.17-.63,0-.63-.38A1.23,1.23,0,0,1,96.29,48.65Z"></path> <path id="path1950" class="cls-9" d="M102,48.55l0,1.63a4.25,4.25,0,0,1-2.06,3.4l-3.33,1.71A3.37,3.37,0,0,0,94.94,58l0,3.5c0,1,.8,1.17,1.69,1A7.06,7.06,0,0,0,100,60.8a3.9,3.9,0,0,0,1.64-2.72v-1.4L98.3,58.39v-.46l3.33-1.72,1.67-.86c1-.49,1.32-1.42,1.64-2.71a7,7,0,0,0,0-3.73c-.26-.94-.72-1.5-1.69-1Zm-1.77,9.81c.35-.18.63,0,.63.37a1.25,1.25,0,0,1-.61,1,.4.4,0,0,1-.64-.38A1.26,1.26,0,0,1,100.18,58.36Z"></path> <path id="path1894" class="cls-13" d="M102.87,61.71c0,.53-2,2-4.46,3.25s-4.47,1.87-4.47,1.35,2-2,4.45-3.25S102.86,61.18,102.87,61.71Z"></path> <path class="cls-10" d="M64.06,90l-3.69.24L63.11,92Z"></path> <path class="cls-10" d="M64.59,90.32l-.73,1.49h0A13.15,13.15,0,0,0,64.59,90.32Z"></path> <polygon class="cls-10" points="60.44 85.47 60.45 85.44 60.65 85.6 61.85 84.93 59.66 84.92 60.44 85.47"></polygon> <path class="cls-10" d="M63.07,85l-1.52.84,3.4.48a2,2,0,0,0-.1-.21A2.54,2.54,0,0,0,63.07,85Z"></path> <polygon class="cls-10" points="55.51 94.73 56.96 97.54 59.52 96.02 57.74 95.44 55.51 94.73"></polygon> <path class="cls-10" d="M60.32,96.27h0l-3,1.81.2.38A16.87,16.87,0,0,0,60.32,96.27Z"></path> <polygon class="cls-10" points="60.81 86.51 59.8 89.7 64.34 89.4 60.81 86.51"></polygon> <path class="cls-10" d="M58.51,85.27a4.13,4.13,0,0,0-1.52.36,11.63,11.63,0,0,0-3.58,2.49A10.67,10.67,0,0,0,51,91.63c-.42,1.11-.4,2,.06,2.43s1.79.23,2.45,0a9.13,9.13,0,0,0,1.44-.8l3.37-3.16.17-.22,0,0h.07c1-1.41,1.48-2.78,1.26-3.64l-.1,0,.09,0a1.08,1.08,0,0,0-.08-.19L59,85.35A1.74,1.74,0,0,0,58.51,85.27Z"></path> <polygon class="cls-10" points="59.77 92.79 59.22 90.61 55.48 94.08 60.22 95.6 60.45 95.47 59.77 92.79"></polygon> <path class="cls-10" d="M61.57,94.8l.4-.52.87-1.78-3-1.82.46,1.82L61,95.14Z"></path> <path class="cls-10" d="M65.15,86.91l-3.49-.49,3,2.44.58-1.17A4.11,4.11,0,0,0,65.15,86.91Z"></path> <path class="cls-10" d="M65,91a14.9,14.9,0,0,1-1,1.81l.55,3.79Z"></path> <path class="cls-10" d="M61,96.55l-.19.19v0a16.27,16.27,0,0,1-2.43,1.93l5.45.43Z"></path> <path class="cls-10" d="M63.5,93.56a25,25,0,0,1-2,2.44h0l-.11.1,2.86,2.54Z"></path> <polygon class="cls-10" points="50.48 94.87 50.5 94.86 50.28 94.25 50.21 95.77 50.58 95.09 50.48 94.87"></polygon> <path class="cls-10" d="M50.33,98.27l.15-1.71-.33.6A4.77,4.77,0,0,0,50.33,98.27Z"></path> <polygon class="cls-10" points="54.98 95.03 53.61 99.53 56.44 97.84 54.98 95.03"></polygon> <path class="cls-10" d="M54.45,94.64l-3.08.69c.26.52.72,1.62,1.67,4Z"></path> <path class="cls-10" d="M57.43,99.16l-.24.13h0c-.28.14-.57.28-.86.4l4.19-.28Z"></path> <path class="cls-10" d="M52.59,99.81l-.06-.16L52,98.44l-.91-2.11-.23,2.78A2,2,0,0,0,52.59,99.81Z"></path> <polygon class="cls-10" points="56.72 98.38 55.45 99.14 56.88 98.69 56.72 98.38"></polygon> </g> </g> </svg> 